# xmcd
#
# Track frame offsets: 
#        150
#        22902
#        33772
#        45357
#        61765
#        81000
#        98882
#        117422
#        130237
#        147025
#
# Disc length: 2401 seconds
#
# Revision: 0
# Processed by: cddbd v1.5.2PL0 Copyright (c) Steve Scherf et al.
# Submitted via: ExactAudioCopy v0.99pb3
#
DISCID=72095f0a
DTITLE=James Cotton - Live and on the move - CD 2
DYEAR=1976
DGENRE=Blues
TTITLE0=Boogie Thing
TTITLE1=All Walks of Life
TTITLE2=Oh Baby You Don't Have To Go
TTITLE3=I Don't Know
TTITLE4=Help Me
TTITLE5=Fannie Mae
TTITLE6=Hot 'n Cold
TTITLE7=Teeny  Weeny Bit
TTITLE8=Blow Wind Blow
TTITLE9=How Long Can a Fool Go Wrong
EXTD=
EXTT0=
EXTT1=
EXTT2=
EXTT3=
EXTT4=
EXTT5=
EXTT6=
EXTT7=
EXTT8=
EXTT9=
PLAYORDER=
